<svg xmlns="http://www.w3.org/2000/svg" viewBox="0 0 1349.4 420">
  <g transform="translate(50,50) scale(1.33333)">
<defs>
    <g id="phoneBody">
      <rect x="-40" y="-80" width="80" height="160" rx="16"/>
    </g>
  </defs>

  <!-- back-left phone -->
  <g transform="translate(88,120) rotate(-15)">
    <use href="#phoneBody" fill="#A9C2B8" stroke="#7FA294" stroke-width="2"/>
  </g>

  <!-- back-right phone -->
  <g transform="translate(152,120) rotate(15)">
    <use href="#phoneBody" fill="#A9C2B8" stroke="#7FA294" stroke-width="2"/>
  </g>

  <!-- hero center phone -->
  <g transform="translate(120,112)">
    <use href="#phoneBody" fill="#0E7C66" stroke="#0B5F4F" stroke-width="2"/>
    <circle cx="0" cy="-73" r="2.6" fill="#0B5F4F"/>
    <rect x="-31" y="-68" width="62" height="124" rx="10" fill="#F4FAF7"/>
    <path d="M -15,-7 L -4,5 L 17,-20" fill="none" stroke="#F2A93B" stroke-width="9" stroke-linecap="round" stroke-linejoin="round"/>
  </g>
  </g>
  <g transform="translate(430.00,100.00) scale(0.128130)" fill="#F4FAF7">
<g transform="translate(0,1166) scale(1,-1)">
<g transform="translate(0,0)"><path d="M290 559H205V0H65V559H-20V671H65V713Q65 819 133.5 871.0Q202 923 321 923Q392 923 468.5 906.5Q545 890 586 872V766Q542 782 468.5 796.5Q395 811 332 811Q206 811 206 714V671H290Z"/></g>
<g transform="translate(270,0)"><path d="M746 267Q746 173 695.5 120.0Q645 67 556 67Q542 67 535 68V194H545Q611 194 611 267Q611 316 575.5 348.0Q540 380 475 384V0H340V1L339 0L37 209V343Q119 409 188.0 449.5Q257 490 340 506V559H-20V671H800V559H475V506Q582 503 664.0 438.5Q746 374 746 267ZM340 146V380Q253 351 161 275Z"/></g>
<g transform="translate(1300,0)"><path d="M294 -7Q278 -10 258 -10Q157 -10 102.0 66.5Q47 143 45 277Q44 347 50.5 403.5Q57 460 74.0 511.0Q91 562 119.0 596.5Q147 631 192.0 651.0Q237 671 296 671H329V559H300Q267 559 244.0 542.0Q221 525 209.0 500.5Q197 476 190.0 435.0Q183 394 181.5 360.5Q180 327 180 277Q180 113 271 113Q287 113 294 114Z"/></g>
<g transform="translate(1609,0)"><path d="M794 287Q794 193 743.5 140.0Q693 87 604 87Q590 87 583 88V214H593Q659 214 659 287Q659 378 523 378V0H383L35 142L36 143V275L180 372L39 455V559H-20V671H848V559H118L313 431V312L182 221L383 134V499H523Q635 499 714.5 444.5Q794 390 794 287Z"/></g>
<g transform="translate(2437,0)"><path d="M290 559H205V0H65V497Q65 536 54.5 547.5Q44 559 12 559H-20V671H30Q63 671 80 637Q70 691 70 733V751H205V671H290Z"/></g>
<g transform="translate(2707,0)"><path d="M533 0H393Q387 42 376.0 85.0Q365 128 346.5 175.0Q328 222 299.0 251.5Q270 281 235 281Q201 281 184.0 259.0Q167 237 167 201Q167 173 172 146H36Q27 183 27 215Q27 294 76.0 349.0Q125 404 212 404Q334 404 393 285V559H-20V671H609V559H533Z"/></g>
<g transform="translate(3546,0)"><path d="M290 559H205V0H65V559H-20V671H65V713Q65 819 133.5 871.0Q202 923 321 923Q392 923 468.5 906.5Q545 890 586 872V766Q542 782 468.5 796.5Q395 811 332 811Q206 811 206 714V671H290Z"/></g>
<g transform="translate(3816,0)"><path d="M746 267Q746 173 695.5 120.0Q645 67 556 67Q542 67 535 68V194H545Q611 194 611 267Q611 316 575.5 348.0Q540 380 475 384V0H340V1L339 0L37 209V343Q119 409 188.0 449.5Q257 490 340 506V559H-20V671H800V559H475V506Q582 503 664.0 438.5Q746 374 746 267ZM340 146V380Q253 351 161 275Z"/></g>
<g transform="translate(4596,0)"><path d="M533 0H393Q387 42 376.0 85.0Q365 128 346.5 175.0Q328 222 299.0 251.5Q270 281 235 281Q201 281 184.0 259.0Q167 237 167 201Q167 173 172 146H36Q27 183 27 215Q27 294 76.0 349.0Q125 404 212 404Q334 404 393 285V559H-20V671H609V559H533Z"/></g>
<g transform="translate(5185,0)"><path d="M294 -7Q278 -10 256 -10Q201 -10 160.0 13.5Q119 37 94.5 78.0Q70 119 58.0 169.0Q46 219 45 277Q45 486 105 559H-20V671H329V559H296Q259 559 234.5 537.0Q210 515 199.0 472.0Q188 429 184.0 385.0Q180 341 180 277Q180 113 271 113Q287 113 294 114Z"/></g>
<g transform="translate(5494,0)"><path d="M560 559H475V0H340V1L339 0L37 209V343Q182 461 340 504V559H-20V671H560ZM340 146V371Q237 330 163 274Z"/></g>
<g transform="translate(6034,0)"><path d="M290 559H205V0H65V497Q65 536 54.5 547.5Q44 559 12 559H-20V671H30Q63 671 80 637Q70 691 70 733V751H205V671H290Z"/></g>
<g transform="translate(6304,0)"><path d="M262 236H129L126 387Q280 387 280 481Q280 517 258.5 538.5Q237 560 195 560Q130 560 65 517V654Q125 682 218 682Q312 682 370.0 632.5Q428 583 428 499Q428 454 410.0 417.5Q392 381 365.0 360.5Q338 340 312.0 329.0Q286 318 265 318ZM258.5 147.5Q285 121 285.0 83.0Q285 45 258.5 18.5Q232 -8 194.0 -8.0Q156 -8 129.5 18.5Q103 45 103.0 83.0Q103 121 129.5 147.5Q156 174 194.0 174.0Q232 174 258.5 147.5Z"/></g>
</g>
  </g>
</svg>